<svg width="80" height="80" viewBox="0 0 80 80" fill="none" xmlns="http://www.w3.org/2000/svg">
  <!-- Brain Gym Logo - Large Version -->
  <defs>
    <linearGradient id="brainGradientLarge" x1="0%" y1="0%" x2="100%" y2="100%">
      <stop offset="0%" style="stop-color:#60a5fa;stop-opacity:1" />
      <stop offset="100%" style="stop-color:#a78bfa;stop-opacity:1" />
    </linearGradient>
  </defs>
  
  <!-- Outer circle -->
  <circle cx="40" cy="40" r="38" fill="url(#brainGradientLarge)" stroke="rgba(255,255,255,0.2)" stroke-width="2"/>
  
  <!-- Brain shape -->
  <path d="M24 32c0-5 3-8 8-8s8 3 8 8c3-2 6 0 8 3s0 6-2 8c2 3 0 6-3 8s-6 0-8-2c-2 3-5 5-8 3s-5-5-3-8c-3-2-5-5-3-8s5-3 8-2c-2-2-2-3 0-5z" fill="white" opacity="0.9"/>
  
  <!-- Neural connections -->
  <circle cx="28" cy="35" r="2.5" fill="white" opacity="0.8"/>
  <circle cx="40" cy="32" r="2.5" fill="white" opacity="0.8"/>
  <circle cx="52" cy="38" r="2.5" fill="white" opacity="0.8"/>
  <circle cx="35" cy="45" r="2.5" fill="white" opacity="0.8"/>
  <circle cx="45" cy="48" r="2.5" fill="white" opacity="0.8"/>
  
  <!-- Connection lines -->
  <line x1="28" y1="35" x2="40" y2="32" stroke="white" stroke-width="1" opacity="0.6"/>
  <line x1="40" y1="32" x2="52" y2="38" stroke="white" stroke-width="1" opacity="0.6"/>
  <line x1="35" y1="45" x2="45" y2="48" stroke="white" stroke-width="1" opacity="0.6"/>
  <line x1="28" y1="35" x2="35" y2="45" stroke="white" stroke-width="1" opacity="0.6"/>
  
  <!-- Text "BG" -->
  <text x="40" y="68" text-anchor="middle" fill="white" font-family="Arial, sans-serif" font-size="12" font-weight="bold" opacity="0.9">BG</text>
</svg>