<svg width="50" height="50" viewBox="0 0 50 50" fill="none" xmlns="http://www.w3.org/2000/svg">
  <!-- Brain Gym Logo -->
  <defs>
    <linearGradient id="brainGradient" x1="0%" y1="0%" x2="100%" y2="100%">
      <stop offset="0%" style="stop-color:#60a5fa;stop-opacity:1" />
      <stop offset="100%" style="stop-color:#a78bfa;stop-opacity:1" />
    </linearGradient>
  </defs>
  
  <!-- Outer circle -->
  <circle cx="25" cy="25" r="24" fill="url(#brainGradient)" stroke="rgba(255,255,255,0.2)" stroke-width="1"/>
  
  <!-- Brain shape -->
  <path d="M15 20c0-3 2-5 5-5s5 2 5 5c2-1 4 0 5 2s0 4-1 5c1 2 0 4-2 5s-4 0-5-1c-1 2-3 3-5 2s-3-3-2-5c-2-1-3-3-2-5s3-2 5-1c-1-1-1-2 0-3z" fill="white" opacity="0.9"/>
  
  <!-- Neural connections -->
  <circle cx="18" cy="22" r="1.5" fill="white" opacity="0.8"/>
  <circle cx="25" cy="20" r="1.5" fill="white" opacity="0.8"/>
  <circle cx="32" cy="24" r="1.5" fill="white" opacity="0.8"/>
  <circle cx="22" cy="28" r="1.5" fill="white" opacity="0.8"/>
  <circle cx="28" cy="30" r="1.5" fill="white" opacity="0.8"/>
  
  <!-- Connection lines -->
  <line x1="18" y1="22" x2="25" y2="20" stroke="white" stroke-width="0.5" opacity="0.6"/>
  <line x1="25" y1="20" x2="32" y2="24" stroke="white" stroke-width="0.5" opacity="0.6"/>
  <line x1="22" y1="28" x2="28" y2="30" stroke="white" stroke-width="0.5" opacity="0.6"/>
  <line x1="18" y1="22" x2="22" y2="28" stroke="white" stroke-width="0.5" opacity="0.6"/>
  
  <!-- Text "BG" -->
  <text x="25" y="42" text-anchor="middle" fill="white" font-family="Arial, sans-serif" font-size="8" font-weight="bold" opacity="0.9">BG</text>
</svg>